# This file uses centimeters as units for non-parametric coordinates.

mtllib Portal.mtl
g default
v 0.397209 -1.477963 -4.811149
v 0.397209 -1.437592 2.252786
v 0.397209 8.155441 -2.715878
v 0.397209 7.020527 -4.064533
v 0.397209 5.989452 -4.731070
v 0.397209 8.259415 -0.020779
v 0.397209 6.796609 1.939206
v 0.397209 5.669564 2.388906
v 0.397209 8.377205 -1.680646
vt 0.923082 0.834082
vt 0.919437 0.196300
vt 0.053310 0.644906
vt 0.155778 0.766672
vt 0.248871 0.826852
vt 0.043922 0.401574
vt 0.175995 0.224612
vt 0.277752 0.184010
vt 0.033287 0.551438
vn 1.000000 0.000000 0.000000
vn 1.000000 0.000000 0.000000
vn 1.000000 0.000000 0.000000
vn 1.000000 0.000000 0.000000
vn 1.000000 0.000000 0.000000
vn 1.000000 0.000000 0.000000
vn 1.000000 0.000000 0.000000
vn 1.000000 0.000000 0.000000
vn 1.000000 0.000000 0.000000
s 1
g pPlane1
usemtl initialShadingGroup
f 1/1/1 5/5/2 2/2/3
f 2/2/3 5/5/2 8/8/4
f 5/5/2 4/4/5 8/8/4
f 4/4/5 3/3/6 8/8/4
f 3/3/6 9/9/7 8/8/4
f 9/9/7 6/6/8 8/8/4
f 6/6/8 7/7/9 8/8/4
