# This file uses centimeters as units for non-parametric coordinates.

mtllib Mountain.mtl
g softMod1Set softMod2Set tweakSet1
v -50.000000 -0.000000 50.000000
v 50.000000 -0.000000 50.000000
v -50.000000 0.000000 -50.000000
v 50.000000 0.000000 -50.000000
v -14.644661 9.519191 14.644661
v 0.000000 -0.000000 50.000000
v 0.000000 32.707802 0.000000
v -50.000000 0.000000 0.000000
v 14.644661 4.247131 -14.644661
v 50.000000 0.000000 0.000000
v 0.000000 0.000000 -50.000000
v -29.835928 -0.000000 29.835928
v -50.000000 -0.000000 25.000000
v -25.000000 -0.000000 50.000000
v -7.322330 1.075727 32.322330
v -32.322330 -0.000000 7.322330
v -14.390937 0.000000 -31.478373
v -25.000000 0.000000 -50.000000
v -25.000000 0.000000 -25.000000
v 7.322330 20.951204 -7.322330
v 7.322330 0.000000 -32.322330
v 14.390937 2.899336 31.478373
v 25.000000 -0.000000 50.000000
v 25.000000 2.052860 25.000000
v -7.322330 26.743645 7.322330
v -31.478373 0.000000 -14.390937
v -50.000000 0.000000 -25.000000
v 31.478373 1.333506 14.390937
v 50.000000 -0.000000 25.000000
v 32.322330 0.000000 -7.322330
v 29.835928 0.000000 -29.835928
v 50.000000 0.000000 -25.000000
v 25.000000 0.000000 -50.000000
v -40.782158 -0.000000 15.675350
v -41.161163 -0.000000 3.661165
v -50.000000 -0.000000 12.500000
v -39.917965 -0.000000 27.417965
v -31.079128 -0.000000 18.579128
v -8.481297 0.000000 -41.284195
v 3.661165 0.000000 -41.161163
v -12.500000 0.000000 -50.000000
v -19.695469 0.000000 -40.739185
v -3.534303 0.000000 -31.900352
v 8.481297 -0.000000 41.284195
v -3.661165 -0.000000 41.161163
v 12.500000 -0.000000 50.000000
v 19.695469 -0.000000 40.739185
v 3.534303 4.422082 31.900352
v -16.122154 1.714508 -8.426811
v -3.661165 32.013680 3.661165
v -12.500000 1.596536 -12.500000
v -28.239185 0.000000 -19.695469
v -19.400352 1.476591 -3.534303
v 16.122154 29.558498 8.426811
v 3.661165 28.624372 -3.661165
v 12.500000 33.576851 12.500000
v 28.239185 2.335486 19.695469
v 19.400352 21.679710 3.534303
v 40.782158 0.000000 -15.675350
v 41.161163 0.000000 -3.661165
v 50.000000 0.000000 -12.500000
v 39.917965 0.000000 -27.417965
v 31.079128 0.000000 -18.579128
v -39.178978 -0.000000 39.178978
v -50.000000 -0.000000 37.500000
v -37.500000 -0.000000 50.000000
v -27.417965 -0.000000 39.917965
v -15.675350 -0.000000 40.782158
v -12.500000 -0.000000 50.000000
v -18.579128 -0.000000 31.079128
v -21.350908 0.096252 21.350906
v -10.983496 6.861165 23.483496
v -23.483496 0.397659 10.983496
v -31.111479 0.000000 -40.331402
v -37.500000 0.000000 -50.000000
v -37.500000 0.000000 -37.500000
v -19.695469 0.000000 -28.239185
v -8.426811 1.139369 -16.122154
v -3.534303 0.526263 -19.400352
v 1.580686 0.004691 -22.537628
v 10.983496 11.933810 -10.983496
v 10.983496 0.000000 -23.483496
v 31.111479 -0.000000 40.331402
v 37.500000 -0.000000 50.000000
v 37.500000 -0.000000 37.500000
v 19.695469 3.267244 28.239185
v 8.426811 33.201138 16.122154
v 3.534303 28.130354 19.400352
v -1.580686 18.835522 22.537628
v -10.983496 18.432432 10.983496
v -40.331402 0.000000 -31.111479
v -50.000000 0.000000 -37.500000
v -40.739185 0.000000 -19.695469
v -41.284195 0.000000 -8.481297
v -50.000000 0.000000 -12.500000
v -31.900352 0.000000 -3.534303
v -22.537630 0.604334 1.580687
v 40.331402 -0.000000 31.111479
v 50.000000 -0.000000 37.500000
v 40.739185 -0.000000 19.695469
v 41.284195 -0.000000 8.481297
v 50.000000 -0.000000 12.500000
v 31.900352 1.387616 3.534303
v 22.537630 11.688283 -1.580687
v 23.483496 2.133078 -10.983496
v 39.178978 0.000000 -39.178978
v 50.000000 0.000000 -37.500000
v 37.500000 0.000000 -50.000000
v 27.417965 0.000000 -39.917965
v 15.675350 0.000000 -40.782158
v 12.500000 0.000000 -50.000000
v 18.579128 0.000000 -31.079128
v 21.350908 0.000000 -21.350906
vt 0.000000 0.000000
vt 1.000000 0.000000
vt 0.000000 1.000000
vt 1.000000 1.000000
vt 0.353553 0.353553
vt 0.500000 0.000000
vt 0.500000 0.500000
vt 0.000000 0.500000
vt 0.646447 0.646447
vt 1.000000 0.500000
vt 0.500000 1.000000
vt 0.201641 0.201641
vt 0.000000 0.250000
vt 0.250000 0.000000
vt 0.426777 0.176777
vt 0.176777 0.426777
vt 0.356091 0.814784
vt 0.250000 1.000000
vt 0.250000 0.750000
vt 0.573223 0.573223
vt 0.573223 0.823223
vt 0.643909 0.185216
vt 0.750000 0.000000
vt 0.750000 0.250000
vt 0.426777 0.426777
vt 0.185216 0.643909
vt 0.000000 0.750000
vt 0.814784 0.356091
vt 1.000000 0.250000
vt 0.823223 0.573223
vt 0.798359 0.798359
vt 1.000000 0.750000
vt 0.750000 1.000000
vt 0.092178 0.343246
vt 0.088388 0.463388
vt 0.000000 0.375000
vt 0.100820 0.225820
vt 0.189209 0.314209
vt 0.415187 0.912842
vt 0.536612 0.911612
vt 0.375000 1.000000
vt 0.303045 0.907392
vt 0.464657 0.819003
vt 0.584813 0.087158
vt 0.463388 0.088388
vt 0.625000 0.000000
vt 0.696955 0.092608
vt 0.535343 0.180996
vt 0.338778 0.584268
vt 0.463388 0.463388
vt 0.375000 0.625000
vt 0.217608 0.696955
vt 0.305996 0.535343
vt 0.661222 0.415732
vt 0.536612 0.536612
vt 0.625000 0.375000
vt 0.782392 0.303045
vt 0.694003 0.464657
vt 0.907822 0.656753
vt 0.911612 0.536612
vt 1.000000 0.625000
vt 0.899180 0.774180
vt 0.810791 0.685791
vt 0.108210 0.108210
vt 0.000000 0.125000
vt 0.125000 0.000000
vt 0.225820 0.100820
vt 0.343246 0.092178
vt 0.375000 0.000000
vt 0.314209 0.189209
vt 0.286491 0.286491
vt 0.390165 0.265165
vt 0.265165 0.390165
vt 0.188885 0.903314
vt 0.125000 1.000000
vt 0.125000 0.875000
vt 0.303045 0.782392
vt 0.415732 0.661222
vt 0.464657 0.694003
vt 0.515807 0.725376
vt 0.609835 0.609835
vt 0.609835 0.734835
vt 0.811115 0.096686
vt 0.875000 0.000000
vt 0.875000 0.125000
vt 0.696955 0.217608
vt 0.584268 0.338778
vt 0.535343 0.305996
vt 0.484193 0.274624
vt 0.390165 0.390165
vt 0.096686 0.811115
vt 0.000000 0.875000
vt 0.092608 0.696955
vt 0.087158 0.584813
vt 0.000000 0.625000
vt 0.180996 0.535343
vt 0.274624 0.484193
vt 0.903314 0.188885
vt 1.000000 0.125000
vt 0.907392 0.303045
vt 0.912842 0.415187
vt 1.000000 0.375000
vt 0.819003 0.464657
vt 0.725376 0.515807
vt 0.734835 0.609835
vt 0.891790 0.891790
vt 1.000000 0.875000
vt 0.875000 1.000000
vt 0.774180 0.899180
vt 0.656753 0.907822
vt 0.625000 1.000000
vt 0.685791 0.810791
vt 0.713509 0.713509
vn 0.000000 1.000000 0.000000
vn 0.000000 1.000000 0.000000
vn 0.000000 1.000000 0.000000
vn 0.000000 1.000000 0.000000
vn -0.000000 1.000000 0.000000
vn -0.000000 1.000000 0.000000
vn -0.000000 1.000000 0.000000
vn 0.000000 1.000000 0.000000
vn -0.278598 0.932727 0.228916
vn -0.128316 0.930017 0.344388
vn -0.117092 0.928501 0.352386
vn -0.004338 0.903698 0.428149
vn -0.713511 0.535305 -0.452053
vn -0.862001 0.449954 -0.233442
vn -0.727645 0.529909 -0.435580
vn -0.866443 0.445926 -0.224558
vn 0.535879 0.558008 -0.633610
vn 0.536242 0.577973 -0.615136
vn 0.536247 0.578516 -0.614621
vn 0.536236 0.594929 -0.598758
vn 0.000000 1.000000 0.000000
vn 0.000000 1.000000 0.000000
vn 0.000000 1.000000 0.000000
vn 0.000000 1.000000 0.000000
vn -0.000000 1.000000 0.000000
vn 0.000000 1.000000 0.000000
vn -0.000000 1.000000 0.000000
vn 0.000000 1.000000 0.000000
vn 0.000000 1.000000 0.000000
vn 0.000000 1.000000 0.000000
vn 0.000000 1.000000 0.000000
vn 0.000000 1.000000 0.000000
vn -0.140828 0.800625 0.582380
vn -0.346828 0.841817 0.413588
vn -0.389583 0.842688 0.371620
vn -0.562724 0.809323 0.168340
vn -0.000000 1.000000 0.000000
vn -0.000000 1.000000 0.000000
vn -0.000000 1.000000 0.000000
vn 0.000000 1.000000 0.000000
vn -0.063603 0.995946 -0.063603
vn -0.033738 0.995545 -0.088048
vn -0.038229 0.995772 -0.083531
vn 0.015571 0.994034 -0.107951
vn 0.175023 0.430556 -0.885431
vn 0.153915 0.452296 -0.878486
vn -0.163827 0.712162 -0.682631
vn -0.273485 0.771700 -0.574182
vn -0.000000 1.000000 0.000000
vn -0.000000 1.000000 0.000000
vn -0.000000 1.000000 0.000000
vn 0.000000 1.000000 0.000000
vn 0.644962 0.504539 0.573990
vn 0.668463 0.485113 0.563757
vn 0.534669 0.485943 0.691367
vn 0.556521 0.483115 0.675932
vn -0.656152 0.539260 0.527885
vn -0.660762 0.534385 0.527091
vn -0.662071 0.532991 0.526861
vn -0.668516 0.526058 0.525689
vn 0.000000 1.000000 0.000000
vn 0.000000 1.000000 0.000000
vn -0.000000 1.000000 0.000000
vn -0.000000 1.000000 0.000000
vn 0.000000 1.000000 0.000000
vn -0.000000 1.000000 0.000000
vn -0.000000 1.000000 0.000000
vn -0.000000 1.000000 0.000000
vn -0.063079 0.998006 -0.002452
vn -0.058226 0.998286 0.005847
vn -0.058219 0.998287 0.005859
vn -0.051854 0.998515 0.016731
vn 0.089712 0.990145 0.107538
vn 0.149070 0.986188 0.072196
vn 0.108930 0.992235 0.060030
vn 0.081566 0.993325 0.081566
vn 0.000000 1.000000 0.000000
vn -0.000000 1.000000 0.000000
vn -0.000000 1.000000 0.000000
vn -0.000000 1.000000 0.000000
vn 0.276451 0.954566 -0.111261
vn 0.688435 0.625591 -0.367005
vn 0.681543 0.635689 -0.362491
vn 0.765749 0.488014 -0.418893
vn -0.000000 1.000000 0.000000
vn 0.000000 1.000000 0.000000
vn -0.000000 1.000000 0.000000
vn 0.000000 1.000000 0.000000
vn 0.000000 1.000000 0.000000
vn 0.000000 1.000000 0.000000
vn 0.000000 1.000000 0.000000
vn 0.000000 1.000000 0.000000
vn 0.000000 1.000000 0.000000
vn 0.000000 1.000000 0.000000
vn 0.000000 1.000000 0.000000
vn 0.000000 1.000000 0.000000
vn -0.000000 1.000000 0.000000
vn -0.000000 1.000000 0.000000
vn -0.000000 1.000000 0.000000
vn 0.000000 1.000000 0.000000
vn 0.000000 1.000000 0.000000
vn 0.000000 1.000000 0.000000
vn 0.000000 1.000000 0.000000
vn 0.000000 1.000000 0.000000
vn -0.000000 1.000000 0.000000
vn -0.000000 1.000000 0.000000
vn -0.000000 1.000000 0.000000
vn 0.000000 1.000000 0.000000
vn -0.000000 1.000000 0.000000
vn -0.000000 1.000000 0.000000
vn -0.000000 1.000000 0.000000
vn 0.000000 1.000000 0.000000
vn 0.000000 1.000000 0.000000
vn 0.000000 1.000000 0.000000
vn 0.000000 1.000000 0.000000
vn 0.000000 1.000000 0.000000
vn -0.000000 1.000000 0.000000
vn 0.000000 1.000000 0.000000
vn 0.000000 1.000000 0.000000
vn 0.000000 1.000000 0.000000
vn -0.000000 1.000000 0.000000
vn -0.000000 1.000000 0.000000
vn -0.000000 1.000000 0.000000
vn 0.000000 1.000000 0.000000
vn 0.000000 1.000000 0.000000
vn 0.000000 1.000000 0.000000
vn 0.000000 1.000000 0.000000
vn 0.000000 1.000000 0.000000
vn 0.014160 0.956512 0.291350
vn 0.087811 0.939626 0.330745
vn 0.073251 0.943519 0.323121
vn 0.143310 0.922249 0.359054
vn -0.556500 0.492456 -0.669175
vn -0.578937 0.514974 -0.632166
vn -0.659277 0.493148 -0.567590
vn -0.641257 0.496972 -0.584643
vn -0.076396 0.995625 -0.053804
vn -0.062358 0.994491 -0.084257
vn -0.089746 0.994456 -0.054803
vn -0.092317 0.994562 -0.048213
vn -0.100002 0.994581 -0.028432
vn -0.103007 0.994466 -0.020660
vn 0.400811 0.784147 -0.473776
vn 0.181842 0.946563 -0.266367
vn 0.393800 0.798734 -0.454912
vn 0.187704 0.948902 -0.253676
vn 0.835698 0.455021 0.307512
vn 0.719814 0.513667 0.466919
vn 0.724947 0.605530 0.328306
vn 0.913176 0.407394 -0.011799
vn 0.762383 0.582999 0.280864
vn 0.917198 0.397600 -0.025722
vn -0.000000 1.000000 0.000000
vn -0.000000 1.000000 0.000000
vn -0.000000 1.000000 0.000000
vn 0.000000 1.000000 0.000000
vn 0.000000 1.000000 0.000000
vn 0.000000 1.000000 0.000000
vn 0.000000 1.000000 0.000000
vn 0.000000 1.000000 0.000000
vn -0.000000 1.000000 0.000000
vn -0.000000 1.000000 0.000000
vn -0.000000 1.000000 0.000000
vn 0.000000 1.000000 0.000000
vn 0.000000 1.000000 0.000000
vn 0.000000 1.000000 0.000000
vn 0.000000 1.000000 0.000000
vn 0.000000 1.000000 0.000000
vn 0.000000 1.000000 0.000000
vn 0.000000 1.000000 0.000000
vn 0.000000 1.000000 0.000000
vn 0.000000 1.000000 0.000000
vn 0.000000 1.000000 0.000000
vn 0.000000 1.000000 0.000000
vn 0.000000 1.000000 0.000000
vn -0.000000 1.000000 0.000000
vn 0.000000 1.000000 0.000000
vn 0.000000 1.000000 0.000000
vn 0.000000 1.000000 0.000000
vn 0.000000 1.000000 0.000000
vn -0.003861 0.992475 0.122388
vn -0.045254 0.995611 0.081916
vn -0.057262 0.995895 0.070096
vn -0.098307 0.994721 0.029420
vn -0.000000 1.000000 0.000000
vn -0.000000 1.000000 0.000000
vn 0.000000 1.000000 0.000000
vn 0.000000 1.000000 0.000000
vn -0.552267 0.707207 0.441429
vn -0.630659 0.694834 0.345651
vn -0.695660 0.673313 0.250412
vn -0.741005 0.649283 0.171302
vn -0.047094 0.998877 0.005201
vn -0.032031 0.999281 0.020285
vn -0.034413 0.999247 0.017901
vn -0.019295 0.999268 0.033020
vn -0.010215 0.999947 0.001128
vn -0.005672 0.999968 0.005672
vn -0.005672 0.999968 0.005672
vn -0.001128 0.999947 0.010215
vn 0.000000 1.000000 0.000000
vn 0.000000 1.000000 0.000000
vn 0.000000 1.000000 0.000000
vn 0.000000 1.000000 0.000000
vn 0.000000 1.000000 0.000000
vn 0.000000 1.000000 0.000000
vn 0.000000 1.000000 0.000000
vn -0.000000 1.000000 0.000000
vn -0.000000 1.000000 0.000000
vn -0.000000 1.000000 0.000000
vn -0.323819 0.463382 -0.824875
vn -0.528426 0.532267 -0.661406
vn -0.023496 0.421358 -0.906590
vn -0.037260 0.430237 -0.901947
vn -0.345118 0.596283 -0.724804
vn -0.385438 0.612812 -0.689854
vn 0.059600 0.993512 -0.096862
vn -0.017427 0.997584 -0.067248
vn 0.037498 0.995377 -0.088416
vn -0.036532 0.997540 -0.059825
vn 0.308783 0.524873 -0.793197
vn 0.261436 0.600651 -0.755560
vn 0.147518 0.748524 -0.646491
vn -0.041662 0.907189 -0.418655
vn 0.000479 1.000000 -0.000198
vn 0.000197 1.000000 -0.000364
vn 0.000196 1.000000 -0.000364
vn -0.000019 1.000000 -0.000491
vn -0.001635 0.999114 -0.042064
vn 0.029103 0.998692 -0.042046
vn 0.008834 0.999076 -0.042062
vn 0.075860 0.996236 -0.041943
vn 0.000000 1.000000 0.000000
vn 0.000000 1.000000 0.000000
vn 0.000000 1.000000 0.000000
vn 0.000000 1.000000 0.000000
vn 0.085453 0.991443 0.098690
vn 0.242287 0.969635 0.033252
vn 0.086989 0.963829 0.251925
vn 0.018542 0.967330 0.252840
vn 0.041009 0.966683 0.252671
vn 0.009033 0.967457 0.252874
vn -0.092035 0.995600 0.017641
vn -0.142976 0.988726 0.044477
vn -0.570907 0.697493 0.433093
vn -0.527822 0.736515 0.423024
vn -0.544186 0.722190 0.426970
vn -0.504242 0.756158 0.417090
vn 0.414178 0.531815 0.738667
vn 0.391828 0.523625 0.756497
vn 0.170960 0.426820 0.888030
vn 0.160796 0.421746 0.892343
vn -0.680300 0.499684 0.536198
vn -0.682794 0.550190 0.480712
vn -0.681970 0.524170 0.510062
vn -0.682659 0.571978 0.454773
vn -0.215357 0.773802 0.595694
vn -0.353879 0.536762 0.765934
vn -0.377977 0.480685 0.791249
vn -0.412324 0.388855 0.823881
vn 0.111460 0.568864 0.814844
vn 0.043895 0.521918 0.851866
vn -0.112998 0.397611 0.910569
vn -0.131726 0.381330 0.915006
vn 0.000000 1.000000 0.000000
vn 0.000000 1.000000 0.000000
vn 0.000000 1.000000 0.000000
vn -0.000000 1.000000 0.000000
vn -0.000000 1.000000 0.000000
vn -0.000000 1.000000 0.000000
vn 0.000000 1.000000 0.000000
vn 0.000000 1.000000 0.000000
vn 0.000000 1.000000 0.000000
vn 0.000000 1.000000 0.000000
vn 0.000000 1.000000 0.000000
vn 0.000000 1.000000 0.000000
vn 0.000000 1.000000 0.000000
vn 0.000000 1.000000 0.000000
vn -0.000000 1.000000 0.000000
vn 0.000000 1.000000 0.000000
vn -0.000000 1.000000 0.000000
vn 0.000000 1.000000 0.000000
vn 0.000000 1.000000 0.000000
vn 0.000000 1.000000 0.000000
vn 0.000000 1.000000 0.000000
vn 0.000000 1.000000 0.000000
vn -0.705821 0.706214 -0.055479
vn -0.856573 0.479704 0.190173
vn -0.771926 0.634846 0.033162
vn -0.867477 0.446460 0.219446
vn -0.907968 0.417207 0.039134
vn -0.744591 0.607143 -0.277419
vn -0.903368 0.428216 0.023609
vn -0.705796 0.629149 -0.325612
vn -0.117310 0.993085 -0.004560
vn -0.117307 0.993053 0.009170
vn -0.117238 0.992471 0.035455
vn -0.116759 0.988418 0.096940
vn 0.000000 1.000000 0.000000
vn 0.000000 1.000000 0.000000
vn 0.000000 1.000000 0.000000
vn -0.000000 1.000000 0.000000
vn -0.000000 1.000000 0.000000
vn -0.000000 1.000000 0.000000
vn 0.183166 0.980343 -0.073329
vn 0.183608 0.982705 -0.024050
vn 0.183659 0.982981 -0.004110
vn 0.183657 0.982969 0.006560
vn 0.000000 1.000000 0.000000
vn 0.000000 1.000000 0.000000
vn 0.000000 1.000000 0.000000
vn 0.000000 1.000000 0.000000
vn 0.051627 0.990858 -0.124638
vn 0.109610 0.992698 -0.050365
vn 0.100235 0.992999 -0.062490
vn 0.147051 0.989128 -0.001490
vn 0.140901 0.989969 0.010411
vn 0.139794 0.990144 0.008534
vn 0.139804 0.990142 0.008551
vn 0.138737 0.990306 0.006743
vn 0.417056 0.658129 -0.626842
vn 0.461657 0.621508 -0.632930
vn 0.492118 0.594477 -0.635937
vn 0.531282 0.557067 -0.638291
vn 0.554290 0.496325 -0.668150
vn 0.556531 0.505423 -0.659410
vn 0.556025 0.503341 -0.661426
vn 0.557695 0.510269 -0.654677
vn 0.885666 0.399360 -0.236872
vn 0.807763 0.584979 -0.072921
vn 0.877180 0.431028 -0.211590
vn 0.731701 0.680882 0.031834
vn 0.000000 1.000000 0.000000
vn 0.000000 1.000000 0.000000
vn 0.000000 1.000000 0.000000
vn 0.000000 1.000000 0.000000
vn 0.000000 1.000000 0.000000
vn 0.000000 1.000000 0.000000
vn 0.000000 1.000000 0.000000
vn 0.000000 1.000000 0.000000
vn 0.000000 1.000000 0.000000
vn 0.000000 1.000000 0.000000
vn 0.000000 1.000000 0.000000
vn -0.000000 1.000000 0.000000
vn 0.000000 1.000000 0.000000
vn 0.000000 1.000000 0.000000
vn 0.000000 1.000000 0.000000
vn 0.000000 1.000000 0.000000
vn 0.000000 1.000000 0.000000
vn 0.000000 1.000000 0.000000
vn -0.000000 1.000000 0.000000
vn -0.000000 1.000000 0.000000
vn -0.000000 1.000000 0.000000
vn -0.000000 1.000000 0.000000
vn 0.000000 1.000000 0.000000
vn 0.000000 1.000000 0.000000
vn 0.095220 0.881280 -0.462903
vn 0.219539 0.908421 -0.355772
vn 0.195200 0.905013 -0.377954
vn 0.323258 0.911572 -0.254049
vn 0.245090 0.969122 -0.027068
vn 0.147671 0.980751 -0.127753
vn 0.162170 0.980258 -0.113115
vn 0.060724 0.975136 -0.213124
vn -0.000000 1.000000 0.000000
vn -0.000000 1.000000 0.000000
vn -0.000000 1.000000 0.000000
vn 0.000000 1.000000 0.000000
s 1
g pPlane1
usemtl initialShadingGroup
f 38/38/1 16/16/2 34/34/3
f 34/34/3 16/16/2 35/35/4
s 2
f 21/21/5 40/40/6 43/43/7
f 43/43/7 40/40/6 39/39/8
s 3
f 15/15/9 45/45/10 48/48/11
f 48/48/11 45/45/10 44/44/12
s 4
f 53/53/13 25/25/14 49/49/15
f 49/49/15 25/25/14 50/50/16
s 5
f 20/20/17 55/55/18 58/58/19
f 58/58/19 55/55/18 54/54/20
s 6
f 63/63/21 30/30/22 59/59/23
f 59/59/23 30/30/22 60/60/24
s 7
f 13/13/25 65/65/26 37/37/27
f 37/37/27 65/65/26 64/64/28
s 8
f 67/67/29 14/14/30 68/68/31
f 68/68/31 14/14/30 69/69/32
s 9
f 15/15/33 72/72/34 70/70/35
f 70/70/35 72/72/34 71/71/36
s 10
f 42/42/37 18/18/38 74/74/39
f 74/74/39 18/18/38 75/75/40
s 11
f 19/19/41 51/51/42 77/77/43
f 77/77/43 51/51/42 78/78/44
s 12
f 20/20/45 81/81/46 79/79/47
f 79/79/47 81/81/46 80/80/48
s 13
f 47/47/49 23/23/50 83/83/51
f 83/83/51 23/23/50 84/84/52
s 14
f 24/24/53 56/56/54 86/86/55
f 86/86/55 56/56/54 87/87/56
s 15
f 88/88/57 25/25/58 89/89/59
f 89/89/59 25/25/58 90/90/60
s 16
f 52/52/61 19/19/62 91/91/63
f 91/91/63 19/19/62 76/76/64
s 17
f 27/27/65 95/95/66 93/93/67
f 93/93/67 95/95/66 94/94/68
s 18
f 96/96/69 16/16/70 97/97/71
f 97/97/71 16/16/70 73/73/72
s 19
f 57/57/73 24/24/74 98/98/75
f 98/98/75 24/24/74 85/85/76
s 20
f 29/29/77 102/102/78 100/100/79
f 100/100/79 102/102/78 101/101/80
s 21
f 30/30/81 105/105/82 103/103/83
f 103/103/83 105/105/82 104/104/84
s 22
f 32/32/85 107/107/86 62/62/87
f 62/62/87 107/107/86 106/106/88
s 23
f 109/109/89 33/33/90 110/110/91
f 110/110/91 33/33/90 111/111/92
s 24
f 21/21/93 82/82/94 112/112/95
f 112/112/95 82/82/94 113/113/96
s 25
f 8/8/97 36/36/98 35/35/99
f 35/35/99 36/36/98 34/34/100
s 26
f 36/36/101 13/13/102 34/34/103
f 34/34/103 13/13/102 37/37/104
s 27
f 12/12/105 38/38/106 37/37/107
f 37/37/107 38/38/106 34/34/108
s 28
f 40/40/109 11/11/110 39/39/111
f 39/39/111 11/11/110 41/41/112
s 29
f 18/18/113 42/42/114 41/41/115
f 41/41/115 42/42/114 39/39/116
s 30
f 42/42/117 17/17/118 39/39/119
f 39/39/119 17/17/118 43/43/120
s 31
f 45/45/121 6/6/122 44/44/123
f 44/44/123 6/6/122 46/46/124
s 32
f 23/23/125 47/47/126 46/46/127
f 46/46/127 47/47/126 44/44/128
s 33
f 47/47/129 22/22/130 44/44/131
f 44/44/131 22/22/130 48/48/132
s 34
f 7/7/133 51/51/134 50/50/135
f 50/50/135 51/51/134 49/49/136
s 11
f 19/19/41 52/52/137 51/51/42
f 51/51/42 52/52/137 49/49/138
s 35
f 52/52/139 26/26/140 49/49/141
f 49/49/141 26/26/140 53/53/142
s 36
f 55/55/143 7/7/144 54/54/145
f 54/54/145 7/7/144 56/56/146
s 14
f 56/56/54 24/24/53 54/54/147
f 54/54/147 24/24/53 57/57/148
s 37
f 28/28/149 58/58/150 57/57/151
f 57/57/151 58/58/150 54/54/152
s 38
f 10/10/153 61/61/154 60/60/155
f 60/60/155 61/61/154 59/59/156
s 39
f 61/61/157 32/32/158 59/59/159
f 59/59/159 32/32/158 62/62/160
s 40
f 31/31/161 63/63/162 62/62/163
f 62/62/163 63/63/162 59/59/164
s 41
f 65/65/165 1/1/166 64/64/167
f 64/64/167 1/1/166 66/66/168
s 42
f 14/14/169 67/67/170 66/66/171
f 66/66/171 67/67/170 64/64/172
s 43
f 67/67/173 12/12/174 64/64/175
f 64/64/175 12/12/174 37/37/176
s 44
f 6/6/177 45/45/178 69/69/179
f 69/69/179 45/45/178 68/68/180
s 45
f 45/45/181 15/15/182 68/68/183
f 68/68/183 15/15/182 70/70/184
s 46
f 12/12/185 67/67/186 70/70/187
f 70/70/187 67/67/186 68/68/188
s 47
f 72/72/189 5/5/190 71/71/191
f 71/71/191 5/5/190 73/73/192
s 48
f 16/16/193 38/38/194 73/73/195
f 73/73/195 38/38/194 71/71/196
s 49
f 38/38/197 12/12/198 71/71/199
f 71/71/199 12/12/198 70/70/200
s 50
f 3/3/201 76/76/202 75/75/203
f 75/75/203 76/76/202 74/74/204
s 16
f 76/76/64 19/19/62 74/74/205
f 74/74/205 19/19/62 77/77/206
s 51
f 17/17/207 42/42/208 77/77/209
f 77/77/209 42/42/208 74/74/210
s 34
f 7/7/133 55/55/211 51/51/134
f 51/51/134 55/55/211 78/78/212
s 52
f 55/55/213 20/20/214 78/78/215
f 78/78/215 20/20/214 79/79/216
s 53
f 79/79/217 17/17/218 78/78/219
f 78/78/219 17/17/218 77/77/220
s 54
f 81/81/221 9/9/222 80/80/223
f 80/80/223 9/9/222 82/82/224
s 55
f 82/82/225 21/21/226 80/80/227
f 80/80/227 21/21/226 43/43/228
s 56
f 17/17/229 79/79/230 43/43/231
f 43/43/231 79/79/230 80/80/232
s 57
f 2/2/233 85/85/234 84/84/235
f 84/84/235 85/85/234 83/83/236
s 19
f 85/85/76 24/24/74 83/83/237
f 83/83/237 24/24/74 86/86/238
s 58
f 22/22/239 47/47/240 86/86/241
f 86/86/241 47/47/240 83/83/242
s 36
f 56/56/146 7/7/144 87/87/243
f 87/87/243 7/7/144 50/50/244
s 59
f 25/25/245 88/88/246 50/50/247
f 50/50/247 88/88/246 87/87/248
s 60
f 22/22/249 86/86/250 88/88/251
f 88/88/251 86/86/250 87/87/252
s 61
f 90/90/253 5/5/254 89/89/255
f 89/89/255 5/5/254 72/72/256
s 62
f 15/15/257 48/48/258 72/72/259
f 72/72/259 48/48/258 89/89/260
s 63
f 48/48/261 22/22/262 89/89/263
f 89/89/263 22/22/262 88/88/264
s 50
f 3/3/201 92/92/265 76/76/202
f 76/76/202 92/92/265 91/91/266
s 64
f 92/92/267 27/27/268 91/91/269
f 91/91/269 27/27/268 93/93/270
s 65
f 26/26/271 52/52/272 93/93/273
f 93/93/273 52/52/272 91/91/274
s 66
f 95/95/275 8/8/276 94/94/277
f 94/94/277 8/8/276 35/35/278
s 67
f 16/16/279 96/96/280 35/35/281
f 35/35/281 96/96/280 94/94/282
s 68
f 96/96/283 26/26/284 94/94/285
f 94/94/285 26/26/284 93/93/286
s 69
f 73/73/287 5/5/288 97/97/289
f 97/97/289 5/5/288 90/90/290
s 70
f 25/25/291 53/53/292 90/90/293
f 90/90/293 53/53/292 97/97/294
s 71
f 26/26/295 96/96/296 53/53/297
f 53/53/297 96/96/296 97/97/298
s 57
f 2/2/233 99/99/299 85/85/234
f 85/85/234 99/99/299 98/98/300
s 72
f 99/99/301 29/29/302 98/98/303
f 98/98/303 29/29/302 100/100/304
s 73
f 28/28/305 57/57/306 100/100/307
f 100/100/307 57/57/306 98/98/308
s 74
f 102/102/309 10/10/310 101/101/311
f 101/101/311 10/10/310 60/60/312
s 75
f 30/30/313 103/103/314 60/60/315
f 60/60/315 103/103/314 101/101/316
s 76
f 103/103/317 28/28/318 101/101/319
f 101/101/319 28/28/318 100/100/320
s 77
f 105/105/321 9/9/322 104/104/323
f 104/104/323 9/9/322 81/81/324
s 78
f 81/81/325 20/20/326 104/104/327
f 104/104/327 20/20/326 58/58/328
s 79
f 58/58/329 28/28/330 104/104/331
f 104/104/331 28/28/330 103/103/332
s 80
f 107/107/333 4/4/334 106/106/335
f 106/106/335 4/4/334 108/108/336
s 81
f 33/33/337 109/109/338 108/108/339
f 108/108/339 109/109/338 106/106/340
s 82
f 109/109/341 31/31/342 106/106/343
f 106/106/343 31/31/342 62/62/344
s 83
f 11/11/345 40/40/346 111/111/347
f 111/111/347 40/40/346 110/110/348
s 84
f 40/40/349 21/21/350 110/110/351
f 110/110/351 21/21/350 112/112/352
s 85
f 31/31/353 109/109/354 112/112/355
f 112/112/355 109/109/354 110/110/356
s 86
f 82/82/357 9/9/358 113/113/359
f 113/113/359 9/9/358 105/105/360
s 87
f 30/30/361 63/63/362 105/105/363
f 105/105/363 63/63/362 113/113/364
s 88
f 63/63/365 31/31/366 113/113/367
f 113/113/367 31/31/366 112/112/368
